G04 Layer_Color=16711935*
%FSLAX25Y25*%
%MOIN*%
G70*
G01*
G75*
%ADD38R,0.07800X0.07800*%
%ADD39C,0.07800*%
%ADD40R,0.07800X0.07800*%
%ADD41O,0.04337X0.02368*%
%ADD42O,0.02368X0.50400*%
%ADD43C,0.06900*%
%ADD44O,0.10400X0.02368*%
%ADD45O,0.20400X0.02368*%
%ADD46C,0.03400*%
D38*
X352500Y162000D02*
D03*
X292500D02*
D03*
D39*
X352500Y152000D02*
D03*
Y142000D02*
D03*
Y132000D02*
D03*
Y122000D02*
D03*
Y112000D02*
D03*
Y102000D02*
D03*
Y92000D02*
D03*
Y82000D02*
D03*
Y72000D02*
D03*
Y62000D02*
D03*
Y52000D02*
D03*
Y42000D02*
D03*
Y32000D02*
D03*
Y22000D02*
D03*
X292500Y152000D02*
D03*
Y142000D02*
D03*
Y132000D02*
D03*
Y122000D02*
D03*
Y112000D02*
D03*
Y102000D02*
D03*
Y92000D02*
D03*
Y82000D02*
D03*
Y72000D02*
D03*
Y62000D02*
D03*
Y52000D02*
D03*
Y42000D02*
D03*
Y32000D02*
D03*
Y22000D02*
D03*
X39000Y84500D02*
D03*
Y104500D02*
D03*
X53500D02*
D03*
Y84500D02*
D03*
X24000Y105000D02*
D03*
Y85000D02*
D03*
X68000Y105000D02*
D03*
Y85000D02*
D03*
X148500Y25000D02*
D03*
X138500D02*
D03*
X142000Y144500D02*
D03*
X141500Y157500D02*
D03*
X144000Y116000D02*
D03*
Y100000D02*
D03*
Y85500D02*
D03*
X253000Y59500D02*
D03*
X189000Y75500D02*
D03*
X144000Y69500D02*
D03*
X148500Y35500D02*
D03*
X138500D02*
D03*
D40*
X128500Y25000D02*
D03*
X152000Y144500D02*
D03*
X151500Y157500D02*
D03*
X128500Y35500D02*
D03*
D41*
X31500Y95000D02*
D03*
X46000D02*
D03*
X60500D02*
D03*
D42*
X98000Y38000D02*
D03*
D43*
X352500Y12000D02*
D03*
X292500D02*
D03*
Y172000D02*
D03*
X352500D02*
D03*
D44*
X86000Y95000D02*
D03*
D45*
X5500D02*
D03*
D46*
X86500Y144500D02*
D03*
X34000Y64000D02*
D03*
X49000Y63500D02*
D03*
X131000Y50500D02*
D03*
X212000Y125500D02*
D03*
X227000Y33500D02*
D03*
X199000Y33000D02*
D03*
X232000Y131500D02*
D03*
X190000Y157000D02*
D03*
X198000Y49000D02*
D03*
X237500Y46500D02*
D03*
X242500Y104000D02*
D03*
X228500Y177500D02*
D03*
X196500Y116000D02*
D03*
Y104500D02*
D03*
Y86500D02*
D03*
X213500Y72000D02*
D03*
X227000Y87272D02*
D03*
X233500Y92000D02*
D03*
X233000Y98500D02*
D03*
X265000Y162000D02*
D03*
X200000Y113000D02*
D03*
Y127500D02*
D03*
X265500Y83000D02*
D03*
Y92000D02*
D03*
X257000Y50500D02*
D03*
X223500Y76000D02*
D03*
X201500Y83000D02*
D03*
X190000Y138000D02*
D03*
X264000Y139500D02*
D03*
X222000Y123000D02*
D03*
X238000Y126000D02*
D03*
X243000Y130500D02*
D03*
X84500Y172000D02*
D03*
X39000Y10000D02*
D03*
X203500Y177500D02*
D03*
X271000Y120500D02*
D03*
X203500Y155000D02*
D03*
X208500Y154500D02*
D03*
X189500Y34000D02*
D03*
Y87000D02*
D03*
X210500Y177500D02*
D03*
X230500Y66500D02*
D03*
Y51500D02*
D03*
X213000Y133500D02*
D03*
X236500Y162000D02*
D03*
X238000Y104000D02*
D03*
X32500Y27500D02*
D03*
X35000Y50000D02*
D03*
X29000Y67500D02*
D03*
X53500D02*
D03*
M02*
