G04 Layer_Physical_Order=2*
G04 Layer_Color=16737843*
%FSLAX25Y25*%
%MOIN*%
G70*
G01*
G75*
%ADD15C,0.01200*%
%ADD16C,0.01800*%
%ADD18R,0.07400X0.07400*%
%ADD19C,0.07400*%
%ADD20R,0.07400X0.07400*%
%ADD21O,0.03937X0.01968*%
%ADD22O,0.01968X0.50000*%
%ADD23C,0.06500*%
%ADD24O,0.10000X0.01968*%
%ADD25O,0.20000X0.01968*%
%ADD26C,0.03000*%
G36*
X94973Y1529D02*
X1529D01*
Y78500D01*
X60500Y78500D01*
X60500Y91500D01*
X94973Y91500D01*
Y1529D01*
D02*
G37*
G36*
X390471D02*
X102500D01*
Y102500D01*
X103000Y103000D01*
X72709D01*
X72431Y103416D01*
X72579Y103773D01*
X72675Y104500D01*
X63325D01*
X63421Y103773D01*
X63569Y103416D01*
X63291Y103000D01*
X58455D01*
X58109Y103500D01*
X58241Y104500D01*
X58079Y105727D01*
X57605Y106870D01*
X56852Y107852D01*
X55870Y108605D01*
X54727Y109079D01*
X53500Y109241D01*
X52273Y109079D01*
X51130Y108605D01*
X50148Y107852D01*
X49395Y106870D01*
X48921Y105727D01*
X48759Y104500D01*
X48891Y103500D01*
X48545Y103000D01*
X43955D01*
X43609Y103500D01*
X43741Y104500D01*
X43579Y105727D01*
X43106Y106870D01*
X42352Y107852D01*
X41370Y108605D01*
X40227Y109079D01*
X39000Y109241D01*
X37773Y109079D01*
X36630Y108605D01*
X35648Y107852D01*
X34894Y106870D01*
X34421Y105727D01*
X34259Y104500D01*
X34391Y103500D01*
X34045Y103000D01*
X28709D01*
X28431Y103416D01*
X28579Y103773D01*
X28741Y105000D01*
X28579Y106227D01*
X28106Y107370D01*
X27352Y108352D01*
X26370Y109105D01*
X25227Y109579D01*
X24000Y109741D01*
X22773Y109579D01*
X21630Y109105D01*
X20648Y108352D01*
X19895Y107370D01*
X19421Y106227D01*
X19259Y105000D01*
X19421Y103773D01*
X19569Y103416D01*
X19291Y103000D01*
X1529D01*
Y194971D01*
X390471D01*
Y1529D01*
D02*
G37*
%LPC*%
G36*
X33500Y63500D02*
X31550D01*
X31645Y63024D01*
X32198Y62198D01*
X33024Y61645D01*
X33500Y61550D01*
Y63500D01*
D02*
G37*
G36*
X48500Y63000D02*
X46551D01*
X46645Y62524D01*
X47198Y61698D01*
X48024Y61145D01*
X48500Y61050D01*
Y63000D01*
D02*
G37*
G36*
X51450D02*
X49500D01*
Y61050D01*
X49975Y61145D01*
X50802Y61698D01*
X51355Y62524D01*
X51450Y63000D01*
D02*
G37*
G36*
X36450Y63500D02*
X34500D01*
Y61550D01*
X34975Y61645D01*
X35802Y62198D01*
X36355Y63024D01*
X36450Y63500D01*
D02*
G37*
G36*
X67500Y84500D02*
X63325D01*
X63421Y83773D01*
X63894Y82630D01*
X64648Y81648D01*
X65630Y80895D01*
X66773Y80421D01*
X67500Y80325D01*
Y84500D01*
D02*
G37*
G36*
X72675D02*
X68500D01*
Y80325D01*
X69227Y80421D01*
X70370Y80895D01*
X71352Y81648D01*
X72105Y82630D01*
X72579Y83773D01*
X72675Y84500D01*
D02*
G37*
G36*
X53500Y70049D02*
X52525Y69855D01*
X51899Y69437D01*
X30601D01*
X29976Y69855D01*
X29000Y70049D01*
X28025Y69855D01*
X27198Y69302D01*
X26645Y68476D01*
X26451Y67500D01*
X26645Y66524D01*
X27198Y65698D01*
X28025Y65145D01*
X29000Y64951D01*
X29976Y65145D01*
X30601Y65563D01*
X31507D01*
X31743Y65122D01*
X31645Y64976D01*
X31550Y64500D01*
X36450D01*
X36355Y64976D01*
X36257Y65122D01*
X36493Y65563D01*
X46770D01*
X47038Y65063D01*
X46645Y64476D01*
X46551Y64000D01*
X51450D01*
X51355Y64476D01*
X50963Y65063D01*
X51230Y65563D01*
X51899D01*
X52525Y65145D01*
X53500Y64951D01*
X54475Y65145D01*
X55302Y65698D01*
X55855Y66524D01*
X56049Y67500D01*
X55855Y68476D01*
X55302Y69302D01*
X54475Y69855D01*
X53500Y70049D01*
D02*
G37*
G36*
X35000Y52549D02*
X34025Y52355D01*
X33198Y51802D01*
X32645Y50976D01*
X32498Y50238D01*
X31130Y48870D01*
X30710Y48241D01*
X30563Y47500D01*
Y29101D01*
X30145Y28475D01*
X29951Y27500D01*
X30145Y26524D01*
X30698Y25698D01*
X31525Y25145D01*
X32500Y24951D01*
X33476Y25145D01*
X34302Y25698D01*
X34855Y26524D01*
X35049Y27500D01*
X34855Y28475D01*
X34437Y29101D01*
Y46698D01*
X35238Y47498D01*
X35976Y47645D01*
X36802Y48198D01*
X37355Y49025D01*
X37549Y50000D01*
X37355Y50976D01*
X36802Y51802D01*
X35976Y52355D01*
X35000Y52549D01*
D02*
G37*
G36*
X38500Y12449D02*
X38025Y12355D01*
X37198Y11802D01*
X36645Y10975D01*
X36551Y10500D01*
X38500D01*
Y12449D01*
D02*
G37*
G36*
X41449Y9500D02*
X39500D01*
Y7551D01*
X39976Y7645D01*
X40802Y8198D01*
X41355Y9025D01*
X41449Y9500D01*
D02*
G37*
G36*
X38500D02*
X36551D01*
X36645Y9025D01*
X37198Y8198D01*
X38025Y7645D01*
X38500Y7551D01*
Y9500D01*
D02*
G37*
G36*
X39500Y12449D02*
Y10500D01*
X41449D01*
X41355Y10975D01*
X40802Y11802D01*
X39976Y12355D01*
X39500Y12449D01*
D02*
G37*
G36*
X68500Y89675D02*
Y85500D01*
X72675D01*
X72579Y86227D01*
X72105Y87370D01*
X71352Y88352D01*
X70370Y89105D01*
X69227Y89579D01*
X68500Y89675D01*
D02*
G37*
G36*
X67500D02*
X66773Y89579D01*
X65630Y89105D01*
X64648Y88352D01*
X63894Y87370D01*
X63421Y86227D01*
X63325Y85500D01*
X67500D01*
Y89675D01*
D02*
G37*
G36*
X352500Y66741D02*
X351273Y66579D01*
X350130Y66105D01*
X349148Y65352D01*
X348394Y64370D01*
X347921Y63227D01*
X347759Y62000D01*
X347921Y60773D01*
X348394Y59630D01*
X349148Y58648D01*
X350130Y57895D01*
X351273Y57421D01*
X352500Y57259D01*
X353727Y57421D01*
X354870Y57895D01*
X355852Y58648D01*
X356606Y59630D01*
X357079Y60773D01*
X357241Y62000D01*
X357079Y63227D01*
X356606Y64370D01*
X355852Y65352D01*
X354870Y66105D01*
X353727Y66579D01*
X352500Y66741D01*
D02*
G37*
G36*
X230500Y69049D02*
X229524Y68855D01*
X228698Y68302D01*
X228145Y67475D01*
X227951Y66500D01*
X228145Y65525D01*
X228698Y64698D01*
X228869Y64583D01*
Y53417D01*
X228698Y53302D01*
X228145Y52476D01*
X227951Y51500D01*
X228145Y50524D01*
X228698Y49698D01*
X229524Y49145D01*
X230500Y48951D01*
X231475Y49145D01*
X232302Y49698D01*
X232855Y50524D01*
X233049Y51500D01*
X232855Y52476D01*
X232302Y53302D01*
X232131Y53417D01*
Y64583D01*
X232302Y64698D01*
X232855Y65525D01*
X233049Y66500D01*
X232855Y67475D01*
X232302Y68302D01*
X231475Y68855D01*
X230500Y69049D01*
D02*
G37*
G36*
X292500Y66741D02*
X291273Y66579D01*
X290130Y66105D01*
X289148Y65352D01*
X288394Y64370D01*
X287921Y63227D01*
X287759Y62000D01*
X287921Y60773D01*
X288394Y59630D01*
X289148Y58648D01*
X290130Y57895D01*
X291273Y57421D01*
X292500Y57259D01*
X293727Y57421D01*
X294870Y57895D01*
X295852Y58648D01*
X296605Y59630D01*
X297079Y60773D01*
X297241Y62000D01*
X297079Y63227D01*
X296605Y64370D01*
X295852Y65352D01*
X294870Y66105D01*
X293727Y66579D01*
X292500Y66741D01*
D02*
G37*
G36*
X271000Y123049D02*
X270024Y122855D01*
X269198Y122302D01*
X268645Y121476D01*
X268451Y120500D01*
X268645Y119525D01*
X269198Y118698D01*
X269369Y118583D01*
Y62176D01*
X268324Y61131D01*
X257412D01*
X257105Y61870D01*
X256352Y62852D01*
X255370Y63605D01*
X254227Y64079D01*
X253000Y64241D01*
X251773Y64079D01*
X250630Y63605D01*
X249648Y62852D01*
X248895Y61870D01*
X248421Y60727D01*
X248259Y59500D01*
X248421Y58273D01*
X248895Y57130D01*
X249648Y56148D01*
X250630Y55395D01*
X251773Y54921D01*
X253000Y54759D01*
X254227Y54921D01*
X255370Y55395D01*
X256352Y56148D01*
X257105Y57130D01*
X257412Y57869D01*
X269000D01*
X269624Y57993D01*
X270153Y58346D01*
X272153Y60347D01*
X272507Y60876D01*
X272631Y61500D01*
Y118583D01*
X272802Y118698D01*
X273355Y119525D01*
X273549Y120500D01*
X273355Y121476D01*
X272802Y122302D01*
X271975Y122855D01*
X271000Y123049D01*
D02*
G37*
G36*
X352500Y46741D02*
X351273Y46579D01*
X350130Y46106D01*
X349148Y45352D01*
X348394Y44370D01*
X347921Y43227D01*
X347759Y42000D01*
X347921Y40773D01*
X348394Y39630D01*
X349148Y38648D01*
X350130Y37894D01*
X351273Y37421D01*
X352500Y37259D01*
X353727Y37421D01*
X354870Y37894D01*
X355852Y38648D01*
X356606Y39630D01*
X357079Y40773D01*
X357241Y42000D01*
X357079Y43227D01*
X356606Y44370D01*
X355852Y45352D01*
X354870Y46106D01*
X353727Y46579D01*
X352500Y46741D01*
D02*
G37*
G36*
X292500D02*
X291273Y46579D01*
X290130Y46106D01*
X289148Y45352D01*
X288394Y44370D01*
X287921Y43227D01*
X287759Y42000D01*
X287921Y40773D01*
X288394Y39630D01*
X289148Y38648D01*
X290130Y37894D01*
X291273Y37421D01*
X292500Y37259D01*
X293727Y37421D01*
X294870Y37894D01*
X295852Y38648D01*
X296605Y39630D01*
X297079Y40773D01*
X297241Y42000D01*
X297079Y43227D01*
X296605Y44370D01*
X295852Y45352D01*
X294870Y46106D01*
X293727Y46579D01*
X292500Y46741D01*
D02*
G37*
G36*
X132200Y40220D02*
X129000D01*
Y36000D01*
X133220D01*
Y39200D01*
X133142Y39590D01*
X132921Y39921D01*
X132590Y40142D01*
X132200Y40220D01*
D02*
G37*
G36*
X198000Y51549D02*
X197025Y51355D01*
X196198Y50802D01*
X195645Y49975D01*
X195451Y49000D01*
X195645Y48024D01*
X196198Y47198D01*
X197025Y46645D01*
X198000Y46451D01*
X198976Y46645D01*
X199802Y47198D01*
X199978Y47215D01*
X201847Y45347D01*
X202376Y44993D01*
X203000Y44869D01*
X235583D01*
X235698Y44698D01*
X236525Y44145D01*
X237500Y43951D01*
X238475Y44145D01*
X239302Y44698D01*
X239855Y45524D01*
X240049Y46500D01*
X239855Y47475D01*
X239302Y48302D01*
X238475Y48855D01*
X237500Y49049D01*
X236525Y48855D01*
X235698Y48302D01*
X235583Y48131D01*
X203676D01*
X201654Y50153D01*
X201124Y50507D01*
X200500Y50631D01*
X199917D01*
X199802Y50802D01*
X198976Y51355D01*
X198000Y51549D01*
D02*
G37*
G36*
X196500Y89049D02*
X195525Y88855D01*
X194698Y88302D01*
X194145Y87476D01*
X193951Y86500D01*
X194145Y85524D01*
X194698Y84698D01*
X194869Y84583D01*
Y76000D01*
X194993Y75376D01*
X195346Y74847D01*
X199346Y70846D01*
X199876Y70493D01*
X200500Y70369D01*
X211583D01*
X211698Y70198D01*
X212525Y69645D01*
X213500Y69451D01*
X214475Y69645D01*
X215302Y70198D01*
X215855Y71025D01*
X216049Y72000D01*
X215855Y72975D01*
X215302Y73802D01*
X215203Y73869D01*
X215355Y74369D01*
X221583D01*
X221698Y74198D01*
X222524Y73645D01*
X223500Y73451D01*
X224476Y73645D01*
X225302Y74198D01*
X225417Y74369D01*
X233324D01*
X242869Y64824D01*
Y53500D01*
X242993Y52876D01*
X243347Y52346D01*
X246346Y49347D01*
X246876Y48993D01*
X247500Y48869D01*
X255083D01*
X255198Y48698D01*
X256025Y48145D01*
X257000Y47951D01*
X257976Y48145D01*
X258802Y48698D01*
X259355Y49525D01*
X259549Y50500D01*
X259355Y51476D01*
X258802Y52302D01*
X257976Y52855D01*
X257000Y53049D01*
X256025Y52855D01*
X255198Y52302D01*
X255083Y52131D01*
X248176D01*
X246131Y54176D01*
Y65500D01*
X246007Y66124D01*
X245654Y66654D01*
X235154Y77153D01*
X234624Y77507D01*
X234000Y77631D01*
X225417D01*
X225302Y77802D01*
X224476Y78355D01*
X223500Y78549D01*
X222524Y78355D01*
X221698Y77802D01*
X221583Y77631D01*
X212676D01*
X206153Y84153D01*
X205624Y84507D01*
X205000Y84631D01*
X203417D01*
X203302Y84802D01*
X202476Y85355D01*
X201500Y85549D01*
X200524Y85355D01*
X199698Y84802D01*
X199145Y83975D01*
X198951Y83000D01*
X199145Y82025D01*
X199698Y81198D01*
X200524Y80645D01*
X201500Y80451D01*
X202476Y80645D01*
X203302Y81198D01*
X203417Y81369D01*
X204324D01*
X210846Y74847D01*
X211376Y74493D01*
X211589Y74450D01*
X211726Y73952D01*
X211451Y73631D01*
X201176D01*
X198131Y76676D01*
Y84583D01*
X198302Y84698D01*
X198855Y85524D01*
X199049Y86500D01*
X198855Y87476D01*
X198302Y88302D01*
X197476Y88855D01*
X196500Y89049D01*
D02*
G37*
G36*
X352500Y56741D02*
X351273Y56579D01*
X350130Y56105D01*
X349148Y55352D01*
X348394Y54370D01*
X347921Y53227D01*
X347759Y52000D01*
X347921Y50773D01*
X348394Y49630D01*
X349148Y48648D01*
X350130Y47894D01*
X351273Y47421D01*
X352500Y47259D01*
X353727Y47421D01*
X354870Y47894D01*
X355852Y48648D01*
X356606Y49630D01*
X357079Y50773D01*
X357241Y52000D01*
X357079Y53227D01*
X356606Y54370D01*
X355852Y55352D01*
X354870Y56105D01*
X353727Y56579D01*
X352500Y56741D01*
D02*
G37*
G36*
X292500D02*
X291273Y56579D01*
X290130Y56105D01*
X289148Y55352D01*
X288394Y54370D01*
X287921Y53227D01*
X287759Y52000D01*
X287921Y50773D01*
X288394Y49630D01*
X289148Y48648D01*
X290130Y47894D01*
X291273Y47421D01*
X292500Y47259D01*
X293727Y47421D01*
X294870Y47894D01*
X295852Y48648D01*
X296605Y49630D01*
X297079Y50773D01*
X297241Y52000D01*
X297079Y53227D01*
X296605Y54370D01*
X295852Y55352D01*
X294870Y56105D01*
X293727Y56579D01*
X292500Y56741D01*
D02*
G37*
G36*
X352500Y86741D02*
X351273Y86579D01*
X350130Y86105D01*
X349148Y85352D01*
X348394Y84370D01*
X347921Y83227D01*
X347759Y82000D01*
X347921Y80773D01*
X348394Y79630D01*
X349148Y78648D01*
X350130Y77895D01*
X351273Y77421D01*
X352500Y77259D01*
X353727Y77421D01*
X354870Y77895D01*
X355852Y78648D01*
X356606Y79630D01*
X357079Y80773D01*
X357241Y82000D01*
X357079Y83227D01*
X356606Y84370D01*
X355852Y85352D01*
X354870Y86105D01*
X353727Y86579D01*
X352500Y86741D01*
D02*
G37*
G36*
X292500D02*
X291273Y86579D01*
X290130Y86105D01*
X289148Y85352D01*
X288394Y84370D01*
X287921Y83227D01*
X287759Y82000D01*
X287921Y80773D01*
X288394Y79630D01*
X289148Y78648D01*
X290130Y77895D01*
X291273Y77421D01*
X292500Y77259D01*
X293727Y77421D01*
X294870Y77895D01*
X295852Y78648D01*
X296605Y79630D01*
X297079Y80773D01*
X297241Y82000D01*
X297079Y83227D01*
X296605Y84370D01*
X295852Y85352D01*
X294870Y86105D01*
X293727Y86579D01*
X292500Y86741D01*
D02*
G37*
G36*
X189000Y80241D02*
X187773Y80079D01*
X186630Y79605D01*
X185648Y78852D01*
X184895Y77870D01*
X184421Y76727D01*
X184259Y75500D01*
X184421Y74273D01*
X184895Y73130D01*
X185648Y72148D01*
X186630Y71395D01*
X187773Y70921D01*
X189000Y70759D01*
X190227Y70921D01*
X191370Y71395D01*
X192352Y72148D01*
X193105Y73130D01*
X193579Y74273D01*
X193741Y75500D01*
X193579Y76727D01*
X193105Y77870D01*
X192352Y78852D01*
X191370Y79605D01*
X190227Y80079D01*
X189000Y80241D01*
D02*
G37*
G36*
Y86500D02*
X187050D01*
X187145Y86024D01*
X187698Y85198D01*
X188524Y84645D01*
X189000Y84550D01*
Y86500D01*
D02*
G37*
G36*
X144000Y90241D02*
X142773Y90079D01*
X141630Y89605D01*
X140648Y88852D01*
X139895Y87870D01*
X139421Y86727D01*
X139259Y85500D01*
X139421Y84273D01*
X139895Y83130D01*
X140648Y82148D01*
X141630Y81395D01*
X142773Y80921D01*
X144000Y80759D01*
X145227Y80921D01*
X146370Y81395D01*
X147352Y82148D01*
X148105Y83130D01*
X148579Y84273D01*
X148741Y85500D01*
X148579Y86727D01*
X148105Y87870D01*
X147352Y88852D01*
X146370Y89605D01*
X145227Y90079D01*
X144000Y90241D01*
D02*
G37*
G36*
X292500Y76741D02*
X291273Y76579D01*
X290130Y76105D01*
X289148Y75352D01*
X288394Y74370D01*
X287921Y73227D01*
X287759Y72000D01*
X287921Y70773D01*
X288394Y69630D01*
X289148Y68648D01*
X290130Y67895D01*
X291273Y67421D01*
X292500Y67259D01*
X293727Y67421D01*
X294870Y67895D01*
X295852Y68648D01*
X296605Y69630D01*
X297079Y70773D01*
X297241Y72000D01*
X297079Y73227D01*
X296605Y74370D01*
X295852Y75352D01*
X294870Y76105D01*
X293727Y76579D01*
X292500Y76741D01*
D02*
G37*
G36*
X148675Y69000D02*
X144500D01*
Y64825D01*
X145227Y64921D01*
X146370Y65395D01*
X147352Y66148D01*
X148105Y67130D01*
X148579Y68273D01*
X148675Y69000D01*
D02*
G37*
G36*
X143500D02*
X139325D01*
X139421Y68273D01*
X139895Y67130D01*
X140648Y66148D01*
X141630Y65395D01*
X142773Y64921D01*
X143500Y64825D01*
Y69000D01*
D02*
G37*
G36*
X352500Y76741D02*
X351273Y76579D01*
X350130Y76105D01*
X349148Y75352D01*
X348394Y74370D01*
X347921Y73227D01*
X347759Y72000D01*
X347921Y70773D01*
X348394Y69630D01*
X349148Y68648D01*
X350130Y67895D01*
X351273Y67421D01*
X352500Y67259D01*
X353727Y67421D01*
X354870Y67895D01*
X355852Y68648D01*
X356606Y69630D01*
X357079Y70773D01*
X357241Y72000D01*
X357079Y73227D01*
X356606Y74370D01*
X355852Y75352D01*
X354870Y76105D01*
X353727Y76579D01*
X352500Y76741D01*
D02*
G37*
G36*
X144500Y74175D02*
Y70000D01*
X148675D01*
X148579Y70727D01*
X148105Y71870D01*
X147352Y72852D01*
X146370Y73605D01*
X145227Y74079D01*
X144500Y74175D01*
D02*
G37*
G36*
X143500D02*
X142773Y74079D01*
X141630Y73605D01*
X140648Y72852D01*
X139895Y71870D01*
X139421Y70727D01*
X139325Y70000D01*
X143500D01*
Y74175D01*
D02*
G37*
G36*
X128000Y40220D02*
X124800D01*
X124410Y40142D01*
X124079Y39921D01*
X123858Y39590D01*
X123780Y39200D01*
Y36000D01*
X128000D01*
Y40220D01*
D02*
G37*
G36*
X133220Y24500D02*
X129000D01*
Y20280D01*
X132200D01*
X132590Y20358D01*
X132921Y20579D01*
X133142Y20910D01*
X133220Y21300D01*
Y24500D01*
D02*
G37*
G36*
X128000D02*
X123780D01*
Y21300D01*
X123858Y20910D01*
X124079Y20579D01*
X124410Y20358D01*
X124800Y20280D01*
X128000D01*
Y24500D01*
D02*
G37*
G36*
Y29720D02*
X124800D01*
X124410Y29642D01*
X124079Y29421D01*
X123858Y29090D01*
X123780Y28700D01*
Y25500D01*
X128000D01*
Y29720D01*
D02*
G37*
G36*
X352500Y36741D02*
X351273Y36579D01*
X350130Y36105D01*
X349148Y35352D01*
X348394Y34370D01*
X347921Y33227D01*
X347759Y32000D01*
X347921Y30773D01*
X348394Y29630D01*
X349148Y28648D01*
X350130Y27894D01*
X351273Y27421D01*
X352500Y27259D01*
X353727Y27421D01*
X354870Y27894D01*
X355852Y28648D01*
X356606Y29630D01*
X357079Y30773D01*
X357241Y32000D01*
X357079Y33227D01*
X356606Y34370D01*
X355852Y35352D01*
X354870Y36105D01*
X353727Y36579D01*
X352500Y36741D01*
D02*
G37*
G36*
X154500Y46131D02*
X141500D01*
X140876Y46007D01*
X140347Y45654D01*
X137346Y42654D01*
X136993Y42124D01*
X136869Y41500D01*
Y39911D01*
X136130Y39606D01*
X135148Y38852D01*
X134395Y37870D01*
X133921Y36727D01*
X133759Y35500D01*
X133921Y34273D01*
X134395Y33130D01*
X135148Y32148D01*
X136130Y31394D01*
X137273Y30921D01*
X138500Y30759D01*
X139727Y30921D01*
X140870Y31394D01*
X141852Y32148D01*
X142605Y33130D01*
X143079Y34273D01*
X143241Y35500D01*
X143079Y36727D01*
X142605Y37870D01*
X141852Y38852D01*
X140870Y39606D01*
X140131Y39911D01*
Y40824D01*
X142176Y42869D01*
X153824D01*
X159369Y37324D01*
Y17500D01*
X159493Y16876D01*
X159846Y16346D01*
X166347Y9847D01*
X166668Y9631D01*
X166517Y9131D01*
X149176D01*
X140131Y18176D01*
Y20588D01*
X140870Y20895D01*
X141852Y21648D01*
X142605Y22630D01*
X143079Y23773D01*
X143241Y25000D01*
X143079Y26227D01*
X142605Y27370D01*
X141852Y28352D01*
X140870Y29105D01*
X139727Y29579D01*
X138500Y29741D01*
X137273Y29579D01*
X136130Y29105D01*
X135148Y28352D01*
X134395Y27370D01*
X133921Y26227D01*
X133759Y25000D01*
X133921Y23773D01*
X134395Y22630D01*
X135148Y21648D01*
X136130Y20895D01*
X136869Y20588D01*
Y17500D01*
X136993Y16876D01*
X137346Y16346D01*
X147346Y6346D01*
X147876Y5993D01*
X148500Y5869D01*
X148500Y5869D01*
X269000D01*
X269624Y5993D01*
X270153Y6346D01*
X284176Y20369D01*
X288088D01*
X288394Y19630D01*
X289148Y18648D01*
X290130Y17895D01*
X291273Y17421D01*
X292500Y17259D01*
X293727Y17421D01*
X294870Y17895D01*
X295852Y18648D01*
X296605Y19630D01*
X297079Y20773D01*
X297241Y22000D01*
X297079Y23227D01*
X296605Y24370D01*
X295852Y25352D01*
X294870Y26105D01*
X293727Y26579D01*
X292500Y26741D01*
X291273Y26579D01*
X290130Y26105D01*
X289148Y25352D01*
X288394Y24370D01*
X288088Y23631D01*
X283500D01*
X282876Y23507D01*
X282347Y23154D01*
X268324Y9131D01*
X262983D01*
X262832Y9631D01*
X263154Y9847D01*
X283676Y30369D01*
X288088D01*
X288394Y29630D01*
X289148Y28648D01*
X290130Y27894D01*
X291273Y27421D01*
X292500Y27259D01*
X293727Y27421D01*
X294870Y27894D01*
X295852Y28648D01*
X296605Y29630D01*
X297079Y30773D01*
X297241Y32000D01*
X297079Y33227D01*
X296605Y34370D01*
X295852Y35352D01*
X294870Y36105D01*
X293727Y36579D01*
X292500Y36741D01*
X291273Y36579D01*
X290130Y36105D01*
X289148Y35352D01*
X288394Y34370D01*
X288088Y33631D01*
X283000D01*
X282376Y33507D01*
X281846Y33154D01*
X261324Y12631D01*
X168176D01*
X162631Y18176D01*
Y38000D01*
X162507Y38624D01*
X162153Y39154D01*
X155654Y45654D01*
X155124Y46007D01*
X154500Y46131D01*
D02*
G37*
G36*
X132200Y29720D02*
X129000D01*
Y25500D01*
X133220D01*
Y28700D01*
X133142Y29090D01*
X132921Y29421D01*
X132590Y29642D01*
X132200Y29720D01*
D02*
G37*
G36*
X148500Y29741D02*
X147273Y29579D01*
X146130Y29105D01*
X145148Y28352D01*
X144395Y27370D01*
X143921Y26227D01*
X143759Y25000D01*
X143921Y23773D01*
X144395Y22630D01*
X145148Y21648D01*
X146130Y20895D01*
X147273Y20421D01*
X148500Y20259D01*
X149727Y20421D01*
X150870Y20895D01*
X151852Y21648D01*
X152605Y22630D01*
X153079Y23773D01*
X153241Y25000D01*
X153079Y26227D01*
X152605Y27370D01*
X151852Y28352D01*
X150870Y29105D01*
X149727Y29579D01*
X148500Y29741D01*
D02*
G37*
G36*
X352500Y26741D02*
X351273Y26579D01*
X350130Y26105D01*
X349148Y25352D01*
X348394Y24370D01*
X347921Y23227D01*
X347759Y22000D01*
X347921Y20773D01*
X348394Y19630D01*
X349148Y18648D01*
X350130Y17895D01*
X351273Y17421D01*
X352500Y17259D01*
X353727Y17421D01*
X354870Y17895D01*
X355852Y18648D01*
X356606Y19630D01*
X357079Y20773D01*
X357241Y22000D01*
X357079Y23227D01*
X356606Y24370D01*
X355852Y25352D01*
X354870Y26105D01*
X353727Y26579D01*
X352500Y26741D01*
D02*
G37*
G36*
Y16298D02*
X352434Y16285D01*
X352367Y16289D01*
X351519Y16177D01*
X351423Y16145D01*
X351391Y16141D01*
X351360Y16128D01*
X351261Y16108D01*
X350471Y15781D01*
X350387Y15725D01*
X350357Y15712D01*
X350330Y15692D01*
X350240Y15648D01*
X349561Y15127D01*
X349495Y15051D01*
X349469Y15031D01*
X349449Y15005D01*
X349373Y14939D01*
X348852Y14260D01*
X348808Y14170D01*
X348788Y14143D01*
X348775Y14113D01*
X348719Y14029D01*
X348392Y13239D01*
X348372Y13140D01*
X348359Y13110D01*
X348355Y13077D01*
X348323Y12981D01*
X348211Y12133D01*
X348218Y12033D01*
X348213Y12000D01*
X348218Y11967D01*
X348211Y11867D01*
X348323Y11018D01*
X348355Y10923D01*
X348359Y10891D01*
X348372Y10860D01*
X348392Y10761D01*
X348719Y9971D01*
X348775Y9887D01*
X348788Y9857D01*
X348808Y9830D01*
X348852Y9740D01*
X349373Y9061D01*
X349449Y8995D01*
X349469Y8969D01*
X349495Y8949D01*
X349561Y8873D01*
X350240Y8352D01*
X350330Y8308D01*
X350357Y8288D01*
X350387Y8275D01*
X350471Y8219D01*
X351261Y7892D01*
X351360Y7872D01*
X351391Y7859D01*
X351423Y7855D01*
X351519Y7823D01*
X352367Y7711D01*
X352434Y7716D01*
X352500Y7702D01*
X352566Y7716D01*
X352633Y7711D01*
X353482Y7823D01*
X353577Y7855D01*
X353609Y7859D01*
X353640Y7872D01*
X353739Y7892D01*
X354529Y8219D01*
X354613Y8275D01*
X354643Y8288D01*
X354670Y8308D01*
X354760Y8352D01*
X355439Y8873D01*
X355505Y8949D01*
X355531Y8969D01*
X355551Y8995D01*
X355627Y9061D01*
X356148Y9740D01*
X356192Y9830D01*
X356212Y9857D01*
X356225Y9887D01*
X356281Y9971D01*
X356608Y10761D01*
X356628Y10860D01*
X356641Y10891D01*
X356645Y10923D01*
X356677Y11018D01*
X356789Y11867D01*
X356782Y11967D01*
X356787Y12000D01*
X356782Y12033D01*
X356789Y12133D01*
X356677Y12981D01*
X356645Y13077D01*
X356641Y13110D01*
X356628Y13140D01*
X356608Y13239D01*
X356281Y14029D01*
X356225Y14113D01*
X356212Y14143D01*
X356192Y14170D01*
X356148Y14260D01*
X355627Y14939D01*
X355551Y15005D01*
X355531Y15031D01*
X355505Y15051D01*
X355439Y15127D01*
X354760Y15648D01*
X354670Y15692D01*
X354643Y15712D01*
X354613Y15725D01*
X354529Y15781D01*
X353739Y16108D01*
X353640Y16128D01*
X353609Y16141D01*
X353577Y16145D01*
X353482Y16177D01*
X352633Y16289D01*
X352566Y16285D01*
X352500Y16298D01*
D02*
G37*
G36*
X292500D02*
X292434Y16285D01*
X292367Y16289D01*
X291518Y16177D01*
X291423Y16145D01*
X291390Y16141D01*
X291360Y16128D01*
X291261Y16108D01*
X290471Y15781D01*
X290387Y15725D01*
X290357Y15712D01*
X290330Y15692D01*
X290240Y15648D01*
X289561Y15127D01*
X289495Y15051D01*
X289469Y15031D01*
X289449Y15005D01*
X289373Y14939D01*
X288852Y14260D01*
X288808Y14170D01*
X288788Y14143D01*
X288775Y14113D01*
X288719Y14029D01*
X288392Y13239D01*
X288372Y13140D01*
X288359Y13110D01*
X288355Y13077D01*
X288323Y12981D01*
X288211Y12133D01*
X288218Y12033D01*
X288213Y12000D01*
X288218Y11967D01*
X288211Y11867D01*
X288323Y11018D01*
X288355Y10923D01*
X288359Y10891D01*
X288372Y10860D01*
X288392Y10761D01*
X288719Y9971D01*
X288775Y9887D01*
X288788Y9857D01*
X288808Y9830D01*
X288852Y9740D01*
X289373Y9061D01*
X289449Y8995D01*
X289469Y8969D01*
X289495Y8949D01*
X289561Y8873D01*
X290240Y8352D01*
X290330Y8308D01*
X290357Y8288D01*
X290387Y8275D01*
X290471Y8219D01*
X291261Y7892D01*
X291360Y7872D01*
X291390Y7859D01*
X291423Y7855D01*
X291518Y7823D01*
X292367Y7711D01*
X292434Y7716D01*
X292500Y7702D01*
X292566Y7716D01*
X292633Y7711D01*
X293481Y7823D01*
X293577Y7855D01*
X293609Y7859D01*
X293640Y7872D01*
X293739Y7892D01*
X294529Y8219D01*
X294613Y8275D01*
X294643Y8288D01*
X294670Y8308D01*
X294760Y8352D01*
X295439Y8873D01*
X295505Y8949D01*
X295531Y8969D01*
X295551Y8995D01*
X295627Y9061D01*
X296148Y9740D01*
X296192Y9830D01*
X296212Y9857D01*
X296225Y9887D01*
X296281Y9971D01*
X296608Y10761D01*
X296628Y10860D01*
X296641Y10891D01*
X296645Y10923D01*
X296677Y11018D01*
X296789Y11867D01*
X296782Y11967D01*
X296787Y12000D01*
X296782Y12033D01*
X296789Y12133D01*
X296677Y12981D01*
X296645Y13077D01*
X296641Y13110D01*
X296628Y13140D01*
X296608Y13239D01*
X296281Y14029D01*
X296225Y14113D01*
X296212Y14143D01*
X296192Y14170D01*
X296148Y14260D01*
X295627Y14939D01*
X295551Y15005D01*
X295531Y15031D01*
X295505Y15051D01*
X295439Y15127D01*
X294760Y15648D01*
X294670Y15692D01*
X294643Y15712D01*
X294613Y15725D01*
X294529Y15781D01*
X293739Y16108D01*
X293640Y16128D01*
X293609Y16141D01*
X293577Y16145D01*
X293481Y16177D01*
X292633Y16289D01*
X292566Y16285D01*
X292500Y16298D01*
D02*
G37*
G36*
X199500Y35449D02*
Y33500D01*
X201449D01*
X201355Y33975D01*
X200802Y34802D01*
X199976Y35355D01*
X199500Y35449D01*
D02*
G37*
G36*
X198500D02*
X198024Y35355D01*
X197198Y34802D01*
X196645Y33975D01*
X196551Y33500D01*
X198500D01*
Y35449D01*
D02*
G37*
G36*
X191949Y33500D02*
X190000D01*
Y31550D01*
X190475Y31645D01*
X191302Y32198D01*
X191855Y33024D01*
X191949Y33500D01*
D02*
G37*
G36*
X226500Y35950D02*
X226025Y35855D01*
X225198Y35302D01*
X224645Y34475D01*
X224551Y34000D01*
X226500D01*
Y35950D01*
D02*
G37*
G36*
X190000Y36450D02*
Y34500D01*
X191949D01*
X191855Y34975D01*
X191302Y35802D01*
X190475Y36355D01*
X190000Y36450D01*
D02*
G37*
G36*
X189000D02*
X188524Y36355D01*
X187698Y35802D01*
X187145Y34975D01*
X187050Y34500D01*
X189000D01*
Y36450D01*
D02*
G37*
G36*
X227500Y35950D02*
Y34000D01*
X229450D01*
X229355Y34475D01*
X228802Y35302D01*
X227976Y35855D01*
X227500Y35950D01*
D02*
G37*
G36*
X189000Y33500D02*
X187050D01*
X187145Y33024D01*
X187698Y32198D01*
X188524Y31645D01*
X189000Y31550D01*
Y33500D01*
D02*
G37*
G36*
X148500Y40241D02*
X147273Y40079D01*
X146130Y39606D01*
X145148Y38852D01*
X144395Y37870D01*
X143921Y36727D01*
X143759Y35500D01*
X143921Y34273D01*
X144395Y33130D01*
X145148Y32148D01*
X146130Y31394D01*
X147273Y30921D01*
X148500Y30759D01*
X149727Y30921D01*
X150870Y31394D01*
X151852Y32148D01*
X152605Y33130D01*
X153079Y34273D01*
X153241Y35500D01*
X153079Y36727D01*
X152605Y37870D01*
X151852Y38852D01*
X150870Y39606D01*
X149727Y40079D01*
X148500Y40241D01*
D02*
G37*
G36*
X201449Y32500D02*
X199500D01*
Y30551D01*
X199976Y30645D01*
X200802Y31198D01*
X201355Y32024D01*
X201449Y32500D01*
D02*
G37*
G36*
X198500D02*
X196551D01*
X196645Y32024D01*
X197198Y31198D01*
X198024Y30645D01*
X198500Y30551D01*
Y32500D01*
D02*
G37*
G36*
X128000Y35000D02*
X123780D01*
Y31800D01*
X123858Y31410D01*
X124079Y31079D01*
X124410Y30858D01*
X124800Y30780D01*
X128000D01*
Y35000D01*
D02*
G37*
G36*
X229450Y33000D02*
X227500D01*
Y31051D01*
X227976Y31145D01*
X228802Y31698D01*
X229355Y32524D01*
X229450Y33000D01*
D02*
G37*
G36*
X226500D02*
X224551D01*
X224645Y32524D01*
X225198Y31698D01*
X226025Y31145D01*
X226500Y31051D01*
Y33000D01*
D02*
G37*
G36*
X133220Y35000D02*
X129000D01*
Y30780D01*
X132200D01*
X132590Y30858D01*
X132921Y31079D01*
X133142Y31410D01*
X133220Y31800D01*
Y35000D01*
D02*
G37*
G36*
X352000Y156675D02*
X351273Y156579D01*
X350130Y156105D01*
X349148Y155352D01*
X348394Y154370D01*
X347921Y153227D01*
X347825Y152500D01*
X352000D01*
Y156675D01*
D02*
G37*
G36*
X357175Y151500D02*
X353000D01*
Y147325D01*
X353727Y147421D01*
X354870Y147895D01*
X355852Y148648D01*
X356606Y149630D01*
X357079Y150773D01*
X357175Y151500D01*
D02*
G37*
G36*
X352000D02*
X347825D01*
X347921Y150773D01*
X348394Y149630D01*
X349148Y148648D01*
X350130Y147895D01*
X351273Y147421D01*
X352000Y147325D01*
Y151500D01*
D02*
G37*
G36*
X353000Y156675D02*
Y152500D01*
X357175D01*
X357079Y153227D01*
X356606Y154370D01*
X355852Y155352D01*
X354870Y156105D01*
X353727Y156579D01*
X353000Y156675D01*
D02*
G37*
G36*
X296200Y166720D02*
X288800D01*
X288410Y166642D01*
X288079Y166421D01*
X287858Y166090D01*
X287780Y165700D01*
Y158300D01*
X287858Y157910D01*
X288079Y157579D01*
X288410Y157358D01*
X288800Y157280D01*
X296200D01*
X296590Y157358D01*
X296921Y157579D01*
X297142Y157910D01*
X297220Y158300D01*
Y165700D01*
X297142Y166090D01*
X296921Y166421D01*
X296590Y166642D01*
X296200Y166720D01*
D02*
G37*
G36*
X155200Y162220D02*
X147800D01*
X147410Y162142D01*
X147079Y161921D01*
X146858Y161590D01*
X146780Y161200D01*
Y153800D01*
X146858Y153410D01*
X147079Y153079D01*
X147410Y152858D01*
X147800Y152780D01*
X155200D01*
X155590Y152858D01*
X155921Y153079D01*
X156142Y153410D01*
X156220Y153800D01*
Y161200D01*
X156142Y161590D01*
X155921Y161921D01*
X155590Y162142D01*
X155200Y162220D01*
D02*
G37*
G36*
X141500Y162241D02*
X140273Y162079D01*
X139130Y161605D01*
X138148Y160852D01*
X137395Y159870D01*
X136921Y158727D01*
X136759Y157500D01*
X136921Y156273D01*
X137395Y155130D01*
X138148Y154148D01*
X139130Y153395D01*
X140273Y152921D01*
X141500Y152759D01*
X142727Y152921D01*
X143870Y153395D01*
X144852Y154148D01*
X145605Y155130D01*
X146079Y156273D01*
X146241Y157500D01*
X146079Y158727D01*
X145605Y159870D01*
X144852Y160852D01*
X143870Y161605D01*
X142727Y162079D01*
X141500Y162241D01*
D02*
G37*
G36*
X292500Y156741D02*
X291273Y156579D01*
X290130Y156105D01*
X289148Y155352D01*
X288394Y154370D01*
X287921Y153227D01*
X287759Y152000D01*
X287921Y150773D01*
X288394Y149630D01*
X289148Y148648D01*
X290130Y147895D01*
X291273Y147421D01*
X292500Y147259D01*
X293727Y147421D01*
X294870Y147895D01*
X295852Y148648D01*
X296605Y149630D01*
X297079Y150773D01*
X297241Y152000D01*
X297079Y153227D01*
X296605Y154370D01*
X295852Y155352D01*
X294870Y156105D01*
X293727Y156579D01*
X292500Y156741D01*
D02*
G37*
G36*
X352500Y146741D02*
X351273Y146579D01*
X350130Y146105D01*
X349148Y145352D01*
X348394Y144370D01*
X347921Y143227D01*
X347759Y142000D01*
X347921Y140773D01*
X348394Y139630D01*
X349148Y138648D01*
X350130Y137895D01*
X351273Y137421D01*
X352500Y137259D01*
X353727Y137421D01*
X354870Y137895D01*
X355852Y138648D01*
X356606Y139630D01*
X357079Y140773D01*
X357241Y142000D01*
X357079Y143227D01*
X356606Y144370D01*
X355852Y145352D01*
X354870Y146105D01*
X353727Y146579D01*
X352500Y146741D01*
D02*
G37*
G36*
X292500D02*
X291273Y146579D01*
X290130Y146105D01*
X289148Y145352D01*
X288394Y144370D01*
X287921Y143227D01*
X287759Y142000D01*
X287921Y140773D01*
X288394Y139630D01*
X289148Y138648D01*
X290130Y137895D01*
X291273Y137421D01*
X292500Y137259D01*
X293727Y137421D01*
X294870Y137895D01*
X295852Y138648D01*
X296605Y139630D01*
X297079Y140773D01*
X297241Y142000D01*
X297079Y143227D01*
X296605Y144370D01*
X295852Y145352D01*
X294870Y146105D01*
X293727Y146579D01*
X292500Y146741D01*
D02*
G37*
G36*
X266449Y139000D02*
X264500D01*
Y137050D01*
X264976Y137145D01*
X265802Y137698D01*
X266355Y138524D01*
X266449Y139000D01*
D02*
G37*
G36*
X155700Y149220D02*
X148300D01*
X147910Y149142D01*
X147579Y148921D01*
X147358Y148590D01*
X147280Y148200D01*
Y140800D01*
X147358Y140410D01*
X147579Y140079D01*
X147910Y139858D01*
X148300Y139780D01*
X155700D01*
X156090Y139858D01*
X156421Y140079D01*
X156642Y140410D01*
X156720Y140800D01*
Y148200D01*
X156642Y148590D01*
X156421Y148921D01*
X156090Y149142D01*
X155700Y149220D01*
D02*
G37*
G36*
X142000Y149241D02*
X140773Y149079D01*
X139630Y148605D01*
X138648Y147852D01*
X137895Y146870D01*
X137589Y146131D01*
X88417D01*
X88302Y146302D01*
X87476Y146855D01*
X86500Y147049D01*
X85524Y146855D01*
X84698Y146302D01*
X84145Y145475D01*
X83951Y144500D01*
X84145Y143525D01*
X84698Y142698D01*
X85524Y142145D01*
X86500Y141951D01*
X87476Y142145D01*
X88302Y142698D01*
X88417Y142869D01*
X137589D01*
X137895Y142130D01*
X138648Y141148D01*
X139630Y140395D01*
X140773Y139921D01*
X142000Y139759D01*
X143227Y139921D01*
X144370Y140395D01*
X145352Y141148D01*
X146105Y142130D01*
X146579Y143273D01*
X146741Y144500D01*
X146579Y145727D01*
X146105Y146870D01*
X145352Y147852D01*
X144370Y148605D01*
X143227Y149079D01*
X142000Y149241D01*
D02*
G37*
G36*
X264500Y141949D02*
Y140000D01*
X266449D01*
X266355Y140475D01*
X265802Y141302D01*
X264976Y141855D01*
X264500Y141949D01*
D02*
G37*
G36*
X263500D02*
X263024Y141855D01*
X262198Y141302D01*
X261645Y140475D01*
X261550Y140000D01*
X263500D01*
Y141949D01*
D02*
G37*
G36*
X356200Y166720D02*
X348800D01*
X348410Y166642D01*
X348079Y166421D01*
X347858Y166090D01*
X347780Y165700D01*
Y158300D01*
X347858Y157910D01*
X348079Y157579D01*
X348410Y157358D01*
X348800Y157280D01*
X356200D01*
X356590Y157358D01*
X356921Y157579D01*
X357142Y157910D01*
X357220Y158300D01*
Y165700D01*
X357142Y166090D01*
X356921Y166421D01*
X356590Y166642D01*
X356200Y166720D01*
D02*
G37*
G36*
X212949Y177000D02*
X211000D01*
Y175050D01*
X211475Y175145D01*
X212302Y175698D01*
X212855Y176524D01*
X212949Y177000D01*
D02*
G37*
G36*
X210000D02*
X208050D01*
X208145Y176524D01*
X208698Y175698D01*
X209524Y175145D01*
X210000Y175050D01*
Y177000D01*
D02*
G37*
G36*
X226784Y186347D02*
X204716D01*
X204092Y186223D01*
X203562Y185870D01*
X202346Y184653D01*
X201993Y184124D01*
X201869Y183500D01*
Y179417D01*
X201698Y179302D01*
X201145Y178475D01*
X200951Y177500D01*
X201145Y176524D01*
X201698Y175698D01*
X202524Y175145D01*
X203500Y174951D01*
X204475Y175145D01*
X205302Y175698D01*
X205855Y176524D01*
X206049Y177500D01*
X205855Y178475D01*
X205302Y179302D01*
X205131Y179417D01*
Y182824D01*
X205392Y183085D01*
X226108D01*
X226869Y182324D01*
Y179417D01*
X226698Y179302D01*
X226145Y178475D01*
X225951Y177500D01*
X226145Y176524D01*
X226698Y175698D01*
X227524Y175145D01*
X228500Y174951D01*
X229475Y175145D01*
X230302Y175698D01*
X230855Y176524D01*
X231049Y177500D01*
X230855Y178475D01*
X230302Y179302D01*
X230131Y179417D01*
Y183000D01*
X230131Y183000D01*
X230007Y183624D01*
X229654Y184153D01*
X227938Y185870D01*
X227408Y186223D01*
X226784Y186347D01*
D02*
G37*
G36*
X292500Y176298D02*
X292434Y176285D01*
X292367Y176289D01*
X291518Y176177D01*
X291423Y176145D01*
X291390Y176141D01*
X291360Y176128D01*
X291261Y176108D01*
X290471Y175781D01*
X290387Y175725D01*
X290357Y175712D01*
X290330Y175692D01*
X290240Y175648D01*
X289561Y175127D01*
X289495Y175051D01*
X289469Y175031D01*
X289449Y175005D01*
X289373Y174939D01*
X288852Y174260D01*
X288808Y174170D01*
X288788Y174143D01*
X288775Y174113D01*
X288719Y174029D01*
X288392Y173239D01*
X288372Y173140D01*
X288359Y173109D01*
X288355Y173077D01*
X288323Y172982D01*
X288211Y172133D01*
X288218Y172033D01*
X288213Y172000D01*
X288218Y171967D01*
X288211Y171867D01*
X288323Y171019D01*
X288355Y170923D01*
X288359Y170890D01*
X288372Y170860D01*
X288392Y170761D01*
X288719Y169971D01*
X288775Y169887D01*
X288788Y169857D01*
X288808Y169830D01*
X288852Y169740D01*
X289373Y169061D01*
X289449Y168995D01*
X289469Y168969D01*
X289495Y168949D01*
X289561Y168873D01*
X290240Y168352D01*
X290330Y168308D01*
X290357Y168288D01*
X290387Y168275D01*
X290471Y168219D01*
X291261Y167892D01*
X291360Y167872D01*
X291390Y167859D01*
X291423Y167855D01*
X291518Y167823D01*
X292367Y167711D01*
X292434Y167716D01*
X292500Y167702D01*
X292566Y167716D01*
X292633Y167711D01*
X293481Y167823D01*
X293577Y167855D01*
X293609Y167859D01*
X293640Y167872D01*
X293739Y167892D01*
X294529Y168219D01*
X294613Y168275D01*
X294643Y168288D01*
X294670Y168308D01*
X294760Y168352D01*
X295439Y168873D01*
X295505Y168949D01*
X295531Y168969D01*
X295551Y168995D01*
X295627Y169061D01*
X296148Y169740D01*
X296192Y169830D01*
X296212Y169857D01*
X296225Y169887D01*
X296281Y169971D01*
X296608Y170761D01*
X296628Y170860D01*
X296641Y170890D01*
X296645Y170923D01*
X296677Y171019D01*
X296789Y171867D01*
X296782Y171967D01*
X296787Y172000D01*
X296782Y172033D01*
X296789Y172133D01*
X296677Y172982D01*
X296645Y173077D01*
X296641Y173109D01*
X296628Y173140D01*
X296608Y173239D01*
X296281Y174029D01*
X296225Y174113D01*
X296212Y174143D01*
X296192Y174170D01*
X296148Y174260D01*
X295627Y174939D01*
X295551Y175005D01*
X295531Y175031D01*
X295505Y175051D01*
X295439Y175127D01*
X294760Y175648D01*
X294670Y175692D01*
X294643Y175712D01*
X294613Y175725D01*
X294529Y175781D01*
X293739Y176108D01*
X293640Y176128D01*
X293609Y176141D01*
X293577Y176145D01*
X293481Y176177D01*
X292633Y176289D01*
X292566Y176285D01*
X292500Y176298D01*
D02*
G37*
G36*
X211000Y179949D02*
Y178000D01*
X212949D01*
X212855Y178475D01*
X212302Y179302D01*
X211475Y179855D01*
X211000Y179949D01*
D02*
G37*
G36*
X210000D02*
X209524Y179855D01*
X208698Y179302D01*
X208145Y178475D01*
X208050Y178000D01*
X210000D01*
Y179949D01*
D02*
G37*
G36*
X352500Y176298D02*
X352434Y176285D01*
X352367Y176289D01*
X351519Y176177D01*
X351423Y176145D01*
X351391Y176141D01*
X351360Y176128D01*
X351261Y176108D01*
X350471Y175781D01*
X350387Y175725D01*
X350357Y175712D01*
X350330Y175692D01*
X350240Y175648D01*
X349561Y175127D01*
X349495Y175051D01*
X349469Y175031D01*
X349449Y175005D01*
X349373Y174939D01*
X348852Y174260D01*
X348808Y174170D01*
X348788Y174143D01*
X348775Y174113D01*
X348719Y174029D01*
X348392Y173239D01*
X348372Y173140D01*
X348359Y173109D01*
X348355Y173077D01*
X348323Y172982D01*
X348211Y172133D01*
X348218Y172033D01*
X348213Y172000D01*
X348218Y171967D01*
X348211Y171867D01*
X348323Y171019D01*
X348355Y170923D01*
X348359Y170890D01*
X348372Y170860D01*
X348392Y170761D01*
X348719Y169971D01*
X348775Y169887D01*
X348788Y169857D01*
X348808Y169830D01*
X348852Y169740D01*
X349373Y169061D01*
X349449Y168995D01*
X349469Y168969D01*
X349495Y168949D01*
X349561Y168873D01*
X350240Y168352D01*
X350330Y168308D01*
X350357Y168288D01*
X350387Y168275D01*
X350471Y168219D01*
X351261Y167892D01*
X351360Y167872D01*
X351391Y167859D01*
X351423Y167855D01*
X351519Y167823D01*
X352367Y167711D01*
X352434Y167716D01*
X352500Y167702D01*
X352566Y167716D01*
X352633Y167711D01*
X353482Y167823D01*
X353577Y167855D01*
X353609Y167859D01*
X353640Y167872D01*
X353739Y167892D01*
X354529Y168219D01*
X354613Y168275D01*
X354643Y168288D01*
X354670Y168308D01*
X354760Y168352D01*
X355439Y168873D01*
X355505Y168949D01*
X355531Y168969D01*
X355551Y168995D01*
X355627Y169061D01*
X356148Y169740D01*
X356192Y169830D01*
X356212Y169857D01*
X356225Y169887D01*
X356281Y169971D01*
X356608Y170761D01*
X356628Y170860D01*
X356641Y170890D01*
X356645Y170923D01*
X356677Y171019D01*
X356789Y171867D01*
X356782Y171967D01*
X356787Y172000D01*
X356782Y172033D01*
X356789Y172133D01*
X356677Y172982D01*
X356645Y173077D01*
X356641Y173109D01*
X356628Y173140D01*
X356608Y173239D01*
X356281Y174029D01*
X356225Y174113D01*
X356212Y174143D01*
X356192Y174170D01*
X356148Y174260D01*
X355627Y174939D01*
X355551Y175005D01*
X355531Y175031D01*
X355505Y175051D01*
X355439Y175127D01*
X354760Y175648D01*
X354670Y175692D01*
X354643Y175712D01*
X354613Y175725D01*
X354529Y175781D01*
X353739Y176108D01*
X353640Y176128D01*
X353609Y176141D01*
X353577Y176145D01*
X353482Y176177D01*
X352633Y176289D01*
X352566Y176285D01*
X352500Y176298D01*
D02*
G37*
G36*
X85000Y174450D02*
Y172500D01*
X86949D01*
X86855Y172976D01*
X86302Y173802D01*
X85475Y174355D01*
X85000Y174450D01*
D02*
G37*
G36*
X264500Y164450D02*
X264024Y164355D01*
X263198Y163802D01*
X262645Y162976D01*
X262550Y162500D01*
X264500D01*
Y164450D01*
D02*
G37*
G36*
X267449Y161500D02*
X265500D01*
Y159550D01*
X265975Y159645D01*
X266802Y160198D01*
X267355Y161024D01*
X267449Y161500D01*
D02*
G37*
G36*
X264500D02*
X262550D01*
X262645Y161024D01*
X263198Y160198D01*
X264024Y159645D01*
X264500Y159550D01*
Y161500D01*
D02*
G37*
G36*
X265500Y164450D02*
Y162500D01*
X267449D01*
X267355Y162976D01*
X266802Y163802D01*
X265975Y164355D01*
X265500Y164450D01*
D02*
G37*
G36*
X84000Y174450D02*
X83525Y174355D01*
X82698Y173802D01*
X82145Y172976D01*
X82051Y172500D01*
X84000D01*
Y174450D01*
D02*
G37*
G36*
X86949Y171500D02*
X85000D01*
Y169551D01*
X85475Y169645D01*
X86302Y170198D01*
X86855Y171025D01*
X86949Y171500D01*
D02*
G37*
G36*
X84000D02*
X82051D01*
X82145Y171025D01*
X82698Y170198D01*
X83525Y169645D01*
X84000Y169551D01*
Y171500D01*
D02*
G37*
G36*
X244950Y103500D02*
X243000D01*
Y101550D01*
X243476Y101645D01*
X244302Y102198D01*
X244855Y103024D01*
X244950Y103500D01*
D02*
G37*
G36*
X352500Y106741D02*
X351273Y106579D01*
X350130Y106105D01*
X349148Y105352D01*
X348394Y104370D01*
X347921Y103227D01*
X347759Y102000D01*
X347921Y100773D01*
X348394Y99630D01*
X349148Y98648D01*
X350130Y97895D01*
X351273Y97421D01*
X352500Y97259D01*
X353727Y97421D01*
X354870Y97895D01*
X355852Y98648D01*
X356606Y99630D01*
X357079Y100773D01*
X357241Y102000D01*
X357079Y103227D01*
X356606Y104370D01*
X355852Y105352D01*
X354870Y106105D01*
X353727Y106579D01*
X352500Y106741D01*
D02*
G37*
G36*
X292500D02*
X291273Y106579D01*
X290130Y106105D01*
X289148Y105352D01*
X288394Y104370D01*
X287921Y103227D01*
X287759Y102000D01*
X287921Y100773D01*
X288394Y99630D01*
X289148Y98648D01*
X290130Y97895D01*
X291273Y97421D01*
X292500Y97259D01*
X293727Y97421D01*
X294870Y97895D01*
X295852Y98648D01*
X296605Y99630D01*
X297079Y100773D01*
X297241Y102000D01*
X297079Y103227D01*
X296605Y104370D01*
X295852Y105352D01*
X294870Y106105D01*
X293727Y106579D01*
X292500Y106741D01*
D02*
G37*
G36*
X243000Y106449D02*
Y104500D01*
X244950D01*
X244855Y104975D01*
X244302Y105802D01*
X243476Y106355D01*
X243000Y106449D01*
D02*
G37*
G36*
X292500Y116741D02*
X291273Y116579D01*
X290130Y116105D01*
X289148Y115352D01*
X288394Y114370D01*
X287921Y113227D01*
X287759Y112000D01*
X287921Y110773D01*
X288394Y109630D01*
X289148Y108648D01*
X290130Y107895D01*
X291273Y107421D01*
X292500Y107259D01*
X293727Y107421D01*
X294870Y107895D01*
X295852Y108648D01*
X296605Y109630D01*
X297079Y110773D01*
X297241Y112000D01*
X297079Y113227D01*
X296605Y114370D01*
X295852Y115352D01*
X294870Y116105D01*
X293727Y116579D01*
X292500Y116741D01*
D02*
G37*
G36*
X68500Y109675D02*
Y105500D01*
X72675D01*
X72579Y106227D01*
X72105Y107370D01*
X71352Y108352D01*
X70370Y109105D01*
X69227Y109579D01*
X68500Y109675D01*
D02*
G37*
G36*
X67500D02*
X66773Y109579D01*
X65630Y109105D01*
X64648Y108352D01*
X63894Y107370D01*
X63421Y106227D01*
X63325Y105500D01*
X67500D01*
Y109675D01*
D02*
G37*
G36*
X144000Y104741D02*
X142773Y104579D01*
X141630Y104105D01*
X140648Y103352D01*
X139895Y102370D01*
X139421Y101227D01*
X139259Y100000D01*
X139421Y98773D01*
X139895Y97630D01*
X140648Y96648D01*
X141630Y95895D01*
X142773Y95421D01*
X144000Y95259D01*
X145227Y95421D01*
X146370Y95895D01*
X147352Y96648D01*
X148105Y97630D01*
X148579Y98773D01*
X148741Y100000D01*
X148579Y101227D01*
X148105Y102370D01*
X147352Y103352D01*
X146370Y104105D01*
X145227Y104579D01*
X144000Y104741D01*
D02*
G37*
G36*
X191949Y86500D02*
X190000D01*
Y84550D01*
X190475Y84645D01*
X191302Y85198D01*
X191855Y86024D01*
X191949Y86500D01*
D02*
G37*
G36*
X292500Y96741D02*
X291273Y96579D01*
X290130Y96105D01*
X289148Y95352D01*
X288394Y94370D01*
X287921Y93227D01*
X287759Y92000D01*
X287921Y90773D01*
X288394Y89630D01*
X289148Y88648D01*
X290130Y87895D01*
X291273Y87421D01*
X292500Y87259D01*
X293727Y87421D01*
X294870Y87895D01*
X295852Y88648D01*
X296605Y89630D01*
X297079Y90773D01*
X297241Y92000D01*
X297079Y93227D01*
X296605Y94370D01*
X295852Y95352D01*
X294870Y96105D01*
X293727Y96579D01*
X292500Y96741D01*
D02*
G37*
G36*
X190000Y89450D02*
Y87500D01*
X191949D01*
X191855Y87976D01*
X191302Y88802D01*
X190475Y89355D01*
X190000Y89450D01*
D02*
G37*
G36*
X189000D02*
X188524Y89355D01*
X187698Y88802D01*
X187145Y87976D01*
X187050Y87500D01*
X189000D01*
Y89450D01*
D02*
G37*
G36*
X352500Y96741D02*
X351273Y96579D01*
X350130Y96105D01*
X349148Y95352D01*
X348394Y94370D01*
X347921Y93227D01*
X347759Y92000D01*
X347921Y90773D01*
X348394Y89630D01*
X349148Y88648D01*
X350130Y87895D01*
X351273Y87421D01*
X352500Y87259D01*
X353727Y87421D01*
X354870Y87895D01*
X355852Y88648D01*
X356606Y89630D01*
X357079Y90773D01*
X357241Y92000D01*
X357079Y93227D01*
X356606Y94370D01*
X355852Y95352D01*
X354870Y96105D01*
X353727Y96579D01*
X352500Y96741D01*
D02*
G37*
G36*
Y116741D02*
X351273Y116579D01*
X350130Y116105D01*
X349148Y115352D01*
X348394Y114370D01*
X347921Y113227D01*
X347759Y112000D01*
X347921Y110773D01*
X348394Y109630D01*
X349148Y108648D01*
X350130Y107895D01*
X351273Y107421D01*
X352500Y107259D01*
X353727Y107421D01*
X354870Y107895D01*
X355852Y108648D01*
X356606Y109630D01*
X357079Y110773D01*
X357241Y112000D01*
X357079Y113227D01*
X356606Y114370D01*
X355852Y115352D01*
X354870Y116105D01*
X353727Y116579D01*
X352500Y116741D01*
D02*
G37*
G36*
X292000Y136675D02*
X291273Y136579D01*
X290130Y136105D01*
X289148Y135352D01*
X288394Y134370D01*
X287921Y133227D01*
X287825Y132500D01*
X292000D01*
Y136675D01*
D02*
G37*
G36*
X232500Y133949D02*
Y132000D01*
X234450D01*
X234355Y132475D01*
X233802Y133302D01*
X232976Y133855D01*
X232500Y133949D01*
D02*
G37*
G36*
X231500D02*
X231025Y133855D01*
X230198Y133302D01*
X229645Y132475D01*
X229551Y132000D01*
X231500D01*
Y133949D01*
D02*
G37*
G36*
X293000Y136675D02*
Y132500D01*
X297175D01*
X297079Y133227D01*
X296605Y134370D01*
X295852Y135352D01*
X294870Y136105D01*
X293727Y136579D01*
X293000Y136675D01*
D02*
G37*
G36*
X263500Y139000D02*
X261550D01*
X261645Y138524D01*
X262198Y137698D01*
X263024Y137145D01*
X263500Y137050D01*
Y139000D01*
D02*
G37*
G36*
X190000Y159549D02*
X189024Y159355D01*
X188198Y158802D01*
X187645Y157975D01*
X187451Y157000D01*
X187645Y156025D01*
X188198Y155198D01*
X188369Y155083D01*
Y139917D01*
X188198Y139802D01*
X187645Y138976D01*
X187451Y138000D01*
X187645Y137024D01*
X188198Y136198D01*
X189024Y135645D01*
X190000Y135451D01*
X190975Y135645D01*
X191802Y136198D01*
X192355Y137024D01*
X192549Y138000D01*
X192355Y138976D01*
X191802Y139802D01*
X191631Y139917D01*
Y155083D01*
X191802Y155198D01*
X192355Y156025D01*
X192549Y157000D01*
X192355Y157975D01*
X191802Y158802D01*
X190975Y159355D01*
X190000Y159549D01*
D02*
G37*
G36*
X236500Y164549D02*
X235525Y164355D01*
X234698Y163802D01*
X234145Y162976D01*
X233951Y162000D01*
X234145Y161024D01*
X234698Y160198D01*
X234869Y160083D01*
Y144676D01*
X225324Y135131D01*
X214917D01*
X214802Y135302D01*
X213976Y135855D01*
X213000Y136049D01*
X212024Y135855D01*
X211198Y135302D01*
X210645Y134476D01*
X210631Y134407D01*
X210131Y134456D01*
Y152583D01*
X210302Y152698D01*
X210855Y153524D01*
X211049Y154500D01*
X210855Y155475D01*
X210302Y156302D01*
X209475Y156855D01*
X208500Y157049D01*
X207524Y156855D01*
X206698Y156302D01*
X206391Y155843D01*
X205860Y155949D01*
X205855Y155975D01*
X205302Y156802D01*
X204475Y157355D01*
X203500Y157549D01*
X202524Y157355D01*
X201698Y156802D01*
X201145Y155975D01*
X200951Y155000D01*
X200991Y154798D01*
X198846Y152654D01*
X198493Y152124D01*
X198369Y151500D01*
Y129417D01*
X198198Y129302D01*
X197645Y128475D01*
X197451Y127500D01*
X197645Y126524D01*
X198198Y125698D01*
X199024Y125145D01*
X200000Y124951D01*
X200975Y125145D01*
X201802Y125698D01*
X202355Y126524D01*
X202549Y127500D01*
X202355Y128475D01*
X201802Y129302D01*
X201631Y129417D01*
Y150824D01*
X203298Y152491D01*
X203500Y152451D01*
X204475Y152645D01*
X205302Y153198D01*
X205609Y153656D01*
X206140Y153551D01*
X206145Y153524D01*
X206698Y152698D01*
X206869Y152583D01*
Y111000D01*
X206993Y110376D01*
X207347Y109846D01*
X226885Y90308D01*
X226721Y89765D01*
X226025Y89627D01*
X225198Y89074D01*
X224645Y88247D01*
X224551Y87772D01*
X227000D01*
Y86772D01*
X224551D01*
X224645Y86296D01*
X225198Y85469D01*
X225703Y85131D01*
X225552Y84631D01*
X213176D01*
X201631Y96176D01*
Y111083D01*
X201802Y111198D01*
X202355Y112024D01*
X202549Y113000D01*
X202355Y113976D01*
X201802Y114802D01*
X200975Y115355D01*
X200000Y115549D01*
X199447Y115439D01*
X199022Y115864D01*
X199049Y116000D01*
X198855Y116975D01*
X198302Y117802D01*
X197476Y118355D01*
X196500Y118549D01*
X195525Y118355D01*
X194698Y117802D01*
X194145Y116975D01*
X193951Y116000D01*
X194145Y115024D01*
X194698Y114198D01*
X194869Y114083D01*
Y106417D01*
X194698Y106302D01*
X194145Y105475D01*
X193951Y104500D01*
X194145Y103524D01*
X194698Y102698D01*
X195525Y102145D01*
X196500Y101951D01*
X197476Y102145D01*
X197869Y102408D01*
X198369Y102140D01*
Y95500D01*
X198493Y94876D01*
X198846Y94346D01*
X211347Y81846D01*
X211876Y81493D01*
X212500Y81369D01*
X263583D01*
X263698Y81198D01*
X264525Y80645D01*
X265500Y80451D01*
X266476Y80645D01*
X267302Y81198D01*
X267855Y82025D01*
X268049Y83000D01*
X267855Y83975D01*
X267302Y84802D01*
X266476Y85355D01*
X265500Y85549D01*
X264525Y85355D01*
X263698Y84802D01*
X263583Y84631D01*
X228448D01*
X228297Y85131D01*
X228802Y85469D01*
X229355Y86296D01*
X229515Y87099D01*
X229913Y87353D01*
X230037Y87381D01*
X230600Y87269D01*
X262400D01*
X263024Y87393D01*
X263554Y87747D01*
X265298Y89491D01*
X265500Y89451D01*
X266476Y89645D01*
X267302Y90198D01*
X267855Y91025D01*
X268049Y92000D01*
X267855Y92975D01*
X267302Y93802D01*
X266476Y94355D01*
X265500Y94549D01*
X264525Y94355D01*
X263698Y93802D01*
X263145Y92975D01*
X262951Y92000D01*
X262991Y91798D01*
X261724Y90531D01*
X236056D01*
X235820Y90972D01*
X235855Y91025D01*
X236049Y92000D01*
X235855Y92975D01*
X235302Y93802D01*
X234631Y94251D01*
Y96583D01*
X234802Y96698D01*
X235355Y97524D01*
X235549Y98500D01*
X235355Y99476D01*
X234802Y100302D01*
X234631Y100417D01*
Y106500D01*
X234507Y107124D01*
X234154Y107653D01*
X221784Y120023D01*
X222053Y120461D01*
X222975Y120645D01*
X223802Y121198D01*
X224355Y122025D01*
X224549Y123000D01*
X224509Y123202D01*
X225676Y124369D01*
X233616D01*
X234240Y124493D01*
X234770Y124846D01*
X235154Y125231D01*
X235633Y125086D01*
X235645Y125024D01*
X236198Y124198D01*
X236369Y124083D01*
Y105917D01*
X236198Y105802D01*
X235645Y104975D01*
X235451Y104000D01*
X235645Y103024D01*
X236198Y102198D01*
X237024Y101645D01*
X238000Y101451D01*
X238976Y101645D01*
X239802Y102198D01*
X240000Y102493D01*
X240500D01*
X240698Y102198D01*
X241525Y101645D01*
X242000Y101550D01*
Y104000D01*
Y106449D01*
X241525Y106355D01*
X240698Y105802D01*
X240500Y105507D01*
X240000D01*
X239802Y105802D01*
X239631Y105917D01*
Y124083D01*
X239802Y124198D01*
X240355Y125024D01*
X240549Y126000D01*
X240355Y126976D01*
X239802Y127802D01*
X238976Y128355D01*
X238914Y128367D01*
X238908Y128386D01*
X238956Y128869D01*
X241083D01*
X241198Y128698D01*
X242024Y128145D01*
X243000Y127951D01*
X243975Y128145D01*
X244802Y128698D01*
X245355Y129525D01*
X245549Y130500D01*
X245355Y131475D01*
X244802Y132302D01*
X243975Y132855D01*
X243000Y133049D01*
X242024Y132855D01*
X241198Y132302D01*
X241083Y132131D01*
X238116D01*
X237492Y132007D01*
X236962Y131653D01*
X232940Y127631D01*
X225000D01*
X224376Y127507D01*
X223847Y127154D01*
X222202Y125509D01*
X222000Y125549D01*
X221024Y125355D01*
X220198Y124802D01*
X219645Y123976D01*
X219461Y123053D01*
X219023Y122784D01*
X215154Y126654D01*
X214624Y127007D01*
X214000Y127131D01*
X213917D01*
X213802Y127302D01*
X212976Y127855D01*
X212000Y128049D01*
X211024Y127855D01*
X210631Y127592D01*
X210131Y127859D01*
Y132544D01*
X210631Y132593D01*
X210645Y132525D01*
X211198Y131698D01*
X212024Y131145D01*
X213000Y130951D01*
X213976Y131145D01*
X214802Y131698D01*
X214917Y131869D01*
X226000D01*
X226624Y131993D01*
X227153Y132346D01*
X237653Y142847D01*
X238007Y143376D01*
X238131Y144000D01*
Y160083D01*
X238302Y160198D01*
X238855Y161024D01*
X239049Y162000D01*
X238855Y162976D01*
X238302Y163802D01*
X237475Y164355D01*
X236500Y164549D01*
D02*
G37*
G36*
X234450Y131000D02*
X232500D01*
Y129051D01*
X232976Y129145D01*
X233802Y129698D01*
X234355Y130525D01*
X234450Y131000D01*
D02*
G37*
G36*
X352500Y126741D02*
X351273Y126579D01*
X350130Y126105D01*
X349148Y125352D01*
X348394Y124370D01*
X347921Y123227D01*
X347759Y122000D01*
X347921Y120773D01*
X348394Y119630D01*
X349148Y118648D01*
X350130Y117895D01*
X351273Y117421D01*
X352500Y117259D01*
X353727Y117421D01*
X354870Y117895D01*
X355852Y118648D01*
X356606Y119630D01*
X357079Y120773D01*
X357241Y122000D01*
X357079Y123227D01*
X356606Y124370D01*
X355852Y125352D01*
X354870Y126105D01*
X353727Y126579D01*
X352500Y126741D01*
D02*
G37*
G36*
X292500D02*
X291273Y126579D01*
X290130Y126105D01*
X289148Y125352D01*
X288394Y124370D01*
X287921Y123227D01*
X287759Y122000D01*
X287921Y120773D01*
X288394Y119630D01*
X289148Y118648D01*
X290130Y117895D01*
X291273Y117421D01*
X292500Y117259D01*
X293727Y117421D01*
X294870Y117895D01*
X295852Y118648D01*
X296605Y119630D01*
X297079Y120773D01*
X297241Y122000D01*
X297079Y123227D01*
X296605Y124370D01*
X295852Y125352D01*
X294870Y126105D01*
X293727Y126579D01*
X292500Y126741D01*
D02*
G37*
G36*
X144000Y120741D02*
X142773Y120579D01*
X141630Y120105D01*
X140648Y119352D01*
X139895Y118370D01*
X139588Y117631D01*
X139000D01*
X138376Y117507D01*
X137847Y117154D01*
X129847Y109153D01*
X129493Y108624D01*
X129369Y108000D01*
Y52417D01*
X129198Y52302D01*
X128645Y51476D01*
X128451Y50500D01*
X128645Y49525D01*
X129198Y48698D01*
X130025Y48145D01*
X131000Y47951D01*
X131975Y48145D01*
X132802Y48698D01*
X133355Y49525D01*
X133549Y50500D01*
X133355Y51476D01*
X132802Y52302D01*
X132631Y52417D01*
Y107324D01*
X139296Y113989D01*
X139786Y113891D01*
X139895Y113630D01*
X140648Y112648D01*
X141630Y111895D01*
X142773Y111421D01*
X144000Y111259D01*
X145227Y111421D01*
X146370Y111895D01*
X147352Y112648D01*
X148105Y113630D01*
X148579Y114773D01*
X148741Y116000D01*
X148579Y117227D01*
X148105Y118370D01*
X147352Y119352D01*
X146370Y120105D01*
X145227Y120579D01*
X144000Y120741D01*
D02*
G37*
G36*
X352500Y136741D02*
X351273Y136579D01*
X350130Y136105D01*
X349148Y135352D01*
X348394Y134370D01*
X347921Y133227D01*
X347759Y132000D01*
X347921Y130773D01*
X348394Y129630D01*
X349148Y128648D01*
X350130Y127895D01*
X351273Y127421D01*
X352500Y127259D01*
X353727Y127421D01*
X354870Y127895D01*
X355852Y128648D01*
X356606Y129630D01*
X357079Y130773D01*
X357241Y132000D01*
X357079Y133227D01*
X356606Y134370D01*
X355852Y135352D01*
X354870Y136105D01*
X353727Y136579D01*
X352500Y136741D01*
D02*
G37*
G36*
X231500Y131000D02*
X229551D01*
X229645Y130525D01*
X230198Y129698D01*
X231025Y129145D01*
X231500Y129051D01*
Y131000D01*
D02*
G37*
G36*
X297175Y131500D02*
X293000D01*
Y127325D01*
X293727Y127421D01*
X294870Y127895D01*
X295852Y128648D01*
X296605Y129630D01*
X297079Y130773D01*
X297175Y131500D01*
D02*
G37*
G36*
X292000D02*
X287825D01*
X287921Y130773D01*
X288394Y129630D01*
X289148Y128648D01*
X290130Y127895D01*
X291273Y127421D01*
X292000Y127325D01*
Y131500D01*
D02*
G37*
%LPD*%
D15*
X86500Y144500D02*
X142000D01*
X131000Y50500D02*
Y108000D01*
X139000Y116000D01*
X144000D01*
X214000Y125500D02*
X233000Y106500D01*
X212000Y125500D02*
X214000D01*
X208500Y111000D02*
Y154500D01*
Y111000D02*
X230600Y88900D01*
X236500Y144000D02*
Y162000D01*
X226000Y133500D02*
X236500Y144000D01*
X213000Y133500D02*
X226000D01*
X238116Y130500D02*
X243000D01*
X233616Y126000D02*
X238116Y130500D01*
X233000Y98500D02*
Y106500D01*
X190000Y138000D02*
Y157000D01*
X198000Y49000D02*
X200500D01*
X203000Y46500D01*
X237500D01*
X228500Y177500D02*
Y183000D01*
X203500Y183500D02*
X204716Y184716D01*
X226784D01*
X228500Y183000D01*
X196500Y104500D02*
Y116000D01*
Y76000D02*
Y86500D01*
Y76000D02*
X200500Y72000D01*
X213500D01*
X230600Y88900D02*
X262400D01*
X233000Y92500D02*
X233500Y92000D01*
X262400Y88900D02*
X265500Y92000D01*
X233000Y92500D02*
Y98500D01*
X283000Y32000D02*
X292500D01*
X262000Y11000D02*
X283000Y32000D01*
X167500Y11000D02*
X262000D01*
X161000Y17500D02*
X167500Y11000D01*
X161000Y17500D02*
Y38000D01*
X154500Y44500D02*
X161000Y38000D01*
X141500Y44500D02*
X154500D01*
X138500Y41500D02*
X141500Y44500D01*
X138500Y35500D02*
Y41500D01*
X283500Y22000D02*
X292500D01*
X269000Y7500D02*
X283500Y22000D01*
X148500Y7500D02*
X269000D01*
X138500Y17500D02*
X148500Y7500D01*
X138500Y17500D02*
Y25000D01*
X200000Y95500D02*
Y113000D01*
Y127500D02*
Y151500D01*
X203500Y155000D01*
X200000Y95500D02*
X212500Y83000D01*
X269000Y59500D02*
X271000Y61500D01*
X212500Y83000D02*
X265500D01*
X247500Y50500D02*
X257000D01*
X244500Y53500D02*
X247500Y50500D01*
X244500Y53500D02*
Y65500D01*
X234000Y76000D02*
X244500Y65500D01*
X223500Y76000D02*
X234000D01*
X212000D02*
X223500D01*
X205000Y83000D02*
X212000Y76000D01*
X201500Y83000D02*
X205000D01*
X222000Y123000D02*
X225000Y126000D01*
X233616D01*
X238000Y104000D02*
Y126000D01*
X203500Y177500D02*
Y183500D01*
X253000Y59500D02*
X269000D01*
X271000Y61500D02*
Y120500D01*
X230500Y51500D02*
Y66500D01*
D16*
X29000Y67500D02*
X53500D01*
X32500Y27500D02*
Y47500D01*
X35000Y50000D01*
D18*
X352500Y162000D02*
D03*
X292500D02*
D03*
D19*
X352500Y152000D02*
D03*
Y142000D02*
D03*
Y132000D02*
D03*
Y122000D02*
D03*
Y112000D02*
D03*
Y102000D02*
D03*
Y92000D02*
D03*
Y82000D02*
D03*
Y72000D02*
D03*
Y62000D02*
D03*
Y52000D02*
D03*
Y42000D02*
D03*
Y32000D02*
D03*
Y22000D02*
D03*
X292500Y152000D02*
D03*
Y142000D02*
D03*
Y132000D02*
D03*
Y122000D02*
D03*
Y112000D02*
D03*
Y102000D02*
D03*
Y92000D02*
D03*
Y82000D02*
D03*
Y72000D02*
D03*
Y62000D02*
D03*
Y52000D02*
D03*
Y42000D02*
D03*
Y32000D02*
D03*
Y22000D02*
D03*
X39000Y84500D02*
D03*
Y104500D02*
D03*
X53500D02*
D03*
Y84500D02*
D03*
X24000Y105000D02*
D03*
Y85000D02*
D03*
X68000Y105000D02*
D03*
Y85000D02*
D03*
X148500Y25000D02*
D03*
X138500D02*
D03*
X142000Y144500D02*
D03*
X141500Y157500D02*
D03*
X144000Y116000D02*
D03*
Y100000D02*
D03*
Y85500D02*
D03*
X253000Y59500D02*
D03*
X189000Y75500D02*
D03*
X144000Y69500D02*
D03*
X148500Y35500D02*
D03*
X138500D02*
D03*
D20*
X128500Y25000D02*
D03*
X152000Y144500D02*
D03*
X151500Y157500D02*
D03*
X128500Y35500D02*
D03*
D21*
X31500Y95000D02*
D03*
X46000D02*
D03*
X60500D02*
D03*
D22*
X98000Y38000D02*
D03*
D23*
X352500Y12000D02*
D03*
X292500D02*
D03*
Y172000D02*
D03*
X352500D02*
D03*
D24*
X86000Y95000D02*
D03*
D25*
X5500D02*
D03*
D26*
X86500Y144500D02*
D03*
X34000Y64000D02*
D03*
X49000Y63500D02*
D03*
X131000Y50500D02*
D03*
X212000Y125500D02*
D03*
X227000Y33500D02*
D03*
X199000Y33000D02*
D03*
X232000Y131500D02*
D03*
X190000Y157000D02*
D03*
X198000Y49000D02*
D03*
X237500Y46500D02*
D03*
X242500Y104000D02*
D03*
X228500Y177500D02*
D03*
X196500Y116000D02*
D03*
Y104500D02*
D03*
Y86500D02*
D03*
X213500Y72000D02*
D03*
X227000Y87272D02*
D03*
X233500Y92000D02*
D03*
X233000Y98500D02*
D03*
X265000Y162000D02*
D03*
X200000Y113000D02*
D03*
Y127500D02*
D03*
X265500Y83000D02*
D03*
Y92000D02*
D03*
X257000Y50500D02*
D03*
X223500Y76000D02*
D03*
X201500Y83000D02*
D03*
X190000Y138000D02*
D03*
X264000Y139500D02*
D03*
X222000Y123000D02*
D03*
X238000Y126000D02*
D03*
X243000Y130500D02*
D03*
X84500Y172000D02*
D03*
X39000Y10000D02*
D03*
X203500Y177500D02*
D03*
X271000Y120500D02*
D03*
X203500Y155000D02*
D03*
X208500Y154500D02*
D03*
X189500Y34000D02*
D03*
Y87000D02*
D03*
X210500Y177500D02*
D03*
X230500Y66500D02*
D03*
Y51500D02*
D03*
X213000Y133500D02*
D03*
X236500Y162000D02*
D03*
X238000Y104000D02*
D03*
X32500Y27500D02*
D03*
X35000Y50000D02*
D03*
X29000Y67500D02*
D03*
X53500D02*
D03*
M02*
