M48
;Layer_Color=9474304
;FILE_FORMAT=2:5
INCH,LZ
;TYPE=PLATED
T2F00S00C0.01800
T3F00S00C0.04000
T4F00S00C0.06500
;TYPE=NON_PLATED
%
T02
X0039Y001
X00325Y00275
X0035Y005
X0131Y00505
X0198Y0049
X0199Y0033
X01895Y0034
X0227Y00335
X02305Y00515
X02375Y00465
X0257Y00505
X02655Y0083
Y0092
X02335
X0233Y00985
X0238Y0104
X02425
X0238Y0126
X0243Y01305
X0232Y01315
X0222Y0123
X0212Y01255
X0213Y01335
X02Y01275
Y0113
X01965Y0116
Y01045
Y00865
X01895Y0087
X02015Y0083
X02135Y0072
X02235Y0076
X0227Y0087272
X02305Y00665
X0271Y01205
X0264Y01395
X0265Y0162
X02365
X02285Y01775
X02105
X02035
Y0155
X02085Y01545
X019Y0157
Y0138
X00865Y01445
X00845Y0172
X00535Y00675
X0049Y00635
X0034Y0064
X0029Y00675
T03
X01285Y0025
X01385
X01485
Y00355
X01385
X01285
X02925Y0032
Y0042
Y0052
Y0022
X03525
Y0032
Y0042
Y0052
Y0062
Y0072
Y0082
Y0092
Y0102
Y0112
Y0122
Y0132
Y0142
Y0152
Y0162
X02925
Y0152
Y0142
Y0132
Y0122
Y0112
Y0102
Y0092
Y0082
Y0072
Y0062
X0253Y00595
X0189Y00755
X0144Y00695
Y00855
Y01
Y0116
X0142Y01445
X0152
X01515Y01575
X01415
X0068Y0105
X00535Y01045
X0039
X0024Y0105
Y0085
X0039Y00845
X00535
X0068Y0085
T04
X02925Y0012
X03525
Y0172
X02925
M30
